<svg width="97" height="91" viewBox="0 0 97 91" fill="none" xmlns="http://www.w3.org/2000/svg">
<path d="M95.4494 45.1384H47.0636C46.0662 45.1384 45.8807 46.5765 46.8549 46.8317L78.3543 55.0661L95.6581 59.5892C96.0293 59.682 96.3076 60.0299 96.3076 60.4242V89.4418C96.3076 89.9057 95.9133 90.3 95.4494 90.3H0.858233C0.394323 90.3 0 89.9057 0 89.4418V46.5765C0 46.4373 0.046391 46.2982 0.0927819 46.159L24.7496 0.440714C24.8887 0.162368 25.1903 0 25.515 0H38.7596C39.2236 0 39.6179 0.394323 39.6179 0.858233V41.4735C39.6179 42.3549 40.7776 42.6565 41.2184 41.9142L65.5272 0.417519C65.6896 0.162368 65.9679 0 66.2695 0H95.4494C95.9133 0 96.3076 0.394323 96.3076 0.858233V44.2802C96.3076 44.7673 95.9365 45.1384 95.4494 45.1384Z" fill="white"/>
</svg>
