<svg width="276" height="264" viewBox="0 0 276 264" fill="none" xmlns="http://www.w3.org/2000/svg">
<g filter="url(#filter0_f_44_7558)">
<ellipse cx="132.607" cy="217.338" rx="110.607" ry="21.3375" fill="#FF4E85" fill-opacity="0.35"/>
</g>
<path d="M136.701 243.402C200.049 243.402 251.402 192.049 251.402 128.701C251.402 65.3534 200.049 14 136.701 14C73.3534 14 22 65.3534 22 128.701C22 192.049 73.3534 243.402 136.701 243.402Z" fill="url(#paint0_linear_44_7558)"/>
<path d="M225.432 60.3657H79.7427V132.262H225.432V60.3657Z" fill="url(#paint1_linear_44_7558)"/>
<path d="M225.438 60.3657H240.061C249.594 60.3657 258.736 64.1527 265.477 70.8935C272.218 77.6343 276.005 86.7768 276.005 96.3098C276.005 105.843 272.218 114.985 265.477 121.726C258.736 128.467 249.594 132.254 240.061 132.254H225.438V60.3657Z" fill="url(#paint2_linear_44_7558)"/>
<path d="M234.896 70.9417H243.261C249.695 70.9417 255.866 73.4975 260.415 78.047C264.964 82.5964 267.52 88.7668 267.52 95.2007V97.4276C267.52 103.862 264.964 110.032 260.415 114.581C255.866 119.131 249.695 121.687 243.261 121.687H234.896V70.9417Z" fill="url(#paint3_linear_44_7558)"/>
<path d="M225.432 72.4319H91.978V132.262H225.432V72.4319Z" fill="url(#paint4_linear_44_7558)"/>
<rect x="44.9341" y="144.231" width="54.1073" height="69.2953" fill="url(#paint5_linear_44_7558)"/>
<rect x="111.382" y="144.231" width="54.1073" height="69.2953" fill="url(#paint6_linear_44_7558)"/>
<rect x="177.835" y="144.231" width="35.1223" height="69.2953" fill="url(#paint7_linear_44_7558)"/>
<path d="M225.438 60.3657H212.999V132.262H225.438V60.3657Z" fill="url(#paint8_linear_44_7558)"/>
<path d="M111.382 131.891L99.0415 131.891L99.0415 225.867L111.382 225.867L111.382 131.891Z" fill="url(#paint9_linear_44_7558)"/>
<path d="M171.185 131.891V144.231H45.4629V213.527H171.185V225.867H37.3398C34.7186 225.867 32.5937 223.742 32.5938 221.121V136.637C32.5938 134.016 34.7187 131.891 37.3398 131.891H171.185Z" fill="url(#paint10_linear_44_7558)"/>
<path d="M225.297 131.891V221.121C225.297 223.742 223.172 225.867 220.551 225.867H165.494V136.637C165.494 134.016 167.619 131.891 170.24 131.891H225.297ZM177.834 144.231V213.527H212.956L212.957 144.231H177.834Z" fill="url(#paint11_linear_44_7558)"/>
<path d="M89.5059 132.415V132.55V136.826V167.978H123.502C124.026 167.978 124.451 167.553 124.451 167.029V136.826V133.364C124.451 132.84 124.026 132.415 123.501 132.415H89.5059Z" fill="url(#paint12_linear_44_7558)"/>
<path d="M87.4493 132.415C86.925 132.415 86.5 132.84 86.5 133.364V167.029C86.5 167.553 86.925 167.978 87.4493 167.978H121.445V132.415H87.4493Z" fill="url(#paint13_linear_44_7558)"/>
<path d="M115.617 135.819H92.3355C91.287 135.819 90.437 136.669 90.437 137.717V162.387C90.437 163.436 91.287 164.286 92.3355 164.286H115.617C116.666 164.286 117.516 163.436 117.516 162.387V137.717C117.516 136.669 116.666 135.819 115.617 135.819Z" fill="url(#paint14_linear_44_7558)"/>
<g filter="url(#filter1_d_44_7558)">
<path d="M25 108.347L38.1414 140.667C38.3209 141.11 38.586 141.514 38.9217 141.854C39.2574 142.194 39.6569 142.465 40.0974 142.651C40.5379 142.836 41.0108 142.933 41.4888 142.936C41.9668 142.938 42.4406 142.847 42.8831 142.666L72.3327 130.701C73.2282 130.337 73.9424 129.632 74.3187 128.741C74.6949 127.851 74.7024 126.847 74.3394 125.951L59.149 88.5929C58.7846 87.6996 58.0806 86.9874 57.1916 86.6127C56.3025 86.238 55.3011 86.2315 54.4072 86.5946L29.9365 96.5438L25 108.347Z" fill="url(#paint15_linear_44_7558)"/>
</g>
<g filter="url(#filter2_d_44_7558)">
<path d="M233.137 89.3622L219.995 121.682C219.816 122.125 219.551 122.529 219.215 122.869C218.879 123.209 218.48 123.48 218.039 123.666C217.599 123.851 217.126 123.948 216.648 123.951C216.17 123.953 215.696 123.861 215.254 123.681L185.804 111.716C184.909 111.352 184.194 110.647 183.818 109.756C183.442 108.866 183.434 107.862 183.797 106.966L198.988 69.6078C199.352 68.7145 200.056 68.0022 200.945 67.6276C201.834 67.2529 202.836 67.2464 203.729 67.6095L228.2 77.5587L233.137 89.3622Z" fill="url(#paint16_linear_44_7558)"/>
</g>
<path d="M25 108.347L33.3573 104.952L29.945 96.5437L25 108.347Z" fill="url(#paint17_linear_44_7558)"/>
<path d="M233.137 89.3621L224.779 85.9667L228.192 77.5586L233.137 89.3621Z" fill="url(#paint18_linear_44_7558)"/>
<path d="M107.541 151.246C108.619 150.489 109.427 149.407 109.848 148.16C110.27 146.912 110.283 145.562 109.886 144.306C109.489 143.05 108.702 141.954 107.639 141.175C106.577 140.397 105.294 139.978 103.976 139.978C102.659 139.978 101.376 140.397 100.314 141.175C99.2513 141.954 98.4643 143.05 98.067 144.306C97.6697 145.562 97.6828 146.912 98.1044 148.16C98.526 149.407 99.3342 150.489 100.412 151.246L97.7529 160.399H110.192L107.541 151.246Z" fill="url(#paint19_linear_44_7558)"/>
<path d="M184.154 55.1923C184.154 56.5242 183.954 57.8485 183.562 59.1211C182.925 61.1617 181.8 63.0161 180.285 64.5233C179.84 64.9737 179.362 65.3898 178.854 65.768C178.52 66.0282 178.169 66.2658 177.804 66.4793C177.44 66.7026 177.064 66.9061 176.678 67.089C176.102 67.3731 175.505 67.611 174.891 67.8002C173.618 68.193 172.294 68.3928 170.962 68.3929H168.507V132.025H99.9209V53.8121C99.9321 50.6828 101.18 47.6848 103.393 45.4721C105.606 43.2593 108.604 42.0113 111.733 42.0001H170.928C172.577 41.9938 174.212 42.3012 175.746 42.9061C176.172 43.0711 176.587 43.2605 176.991 43.4734C177.194 43.575 177.389 43.6851 177.584 43.8036C177.744 43.8915 177.899 43.9876 178.049 44.0915C178.85 44.5975 179.591 45.1911 180.259 45.8612C181.157 46.7609 181.921 47.7845 182.529 48.901C182.939 49.6534 183.274 50.4448 183.528 51.2634L183.706 51.8985C183.815 52.3227 183.903 52.7523 183.968 53.1855C184.082 53.8486 184.144 54.5195 184.154 55.1923Z" fill="url(#paint20_linear_44_7558)"/>
<path d="M184.159 55.1922C184.159 56.5241 183.96 57.8484 183.567 59.121C183.307 59.9376 182.973 60.7284 182.568 61.4834C181.954 62.5983 181.188 63.6216 180.29 64.5232C179.845 64.9736 179.367 65.3897 178.859 65.7679C178.52 66.022 178.173 66.2506 177.809 66.4792C177.445 66.7025 177.069 66.906 176.683 67.0889C176.105 67.3694 175.508 67.6072 174.896 67.8001C173.623 68.1929 172.299 68.3927 170.967 68.3928H168.512V53.812C168.517 51.4803 169.21 49.202 170.504 47.2621C171.798 45.3223 173.635 43.807 175.785 42.906C176.209 43.0754 176.632 43.2616 177.03 43.4733C177.233 43.5749 177.428 43.685 177.623 43.8035C177.783 43.8914 177.938 43.9875 178.088 44.0914C178.888 44.5974 179.63 45.191 180.298 45.8611C181.196 46.7608 181.96 47.7844 182.568 48.9009C182.975 49.655 183.309 50.446 183.567 51.2633L183.745 51.8984C183.855 52.3224 183.942 52.752 184.007 53.1854C184.11 53.8494 184.161 54.5203 184.159 55.1922Z" fill="url(#paint21_linear_44_7558)"/>
<path d="M154.815 108.858H111.504C110.779 108.858 110.191 109.444 110.191 110.167C110.191 110.889 110.779 111.475 111.504 111.475H154.815C155.539 111.475 156.127 110.889 156.127 110.167C156.127 109.444 155.539 108.858 154.815 108.858Z" fill="#FB87AE"/>
<path d="M154.815 95.4377H111.504C110.779 95.4377 110.191 96.0235 110.191 96.746C110.191 97.4685 110.779 98.0542 111.504 98.0542H154.815C155.539 98.0542 156.127 97.4685 156.127 96.746C156.127 96.0235 155.539 95.4377 154.815 95.4377Z" fill="#FB87AE"/>
<path d="M154.814 82.0083H126.923C126.198 82.0083 125.61 82.594 125.61 83.3165C125.61 84.039 126.198 84.6247 126.923 84.6247H154.814C155.539 84.6247 156.127 84.039 156.127 83.3165C156.127 82.594 155.539 82.0083 154.814 82.0083Z" fill="#FB87AE"/>
<path d="M136.517 68.5791H111.199C110.643 68.5791 110.191 69.0302 110.191 69.5867V70.1879C110.191 70.7444 110.643 71.1955 111.199 71.1955H136.517C137.073 71.1955 137.524 70.7444 137.524 70.1879V69.5867C137.524 69.0302 137.073 68.5791 136.517 68.5791Z" fill="#FB87AE"/>
<path d="M120.818 82.0083H111.504C110.779 82.0083 110.191 82.594 110.191 83.3165C110.191 84.039 110.779 84.6247 111.504 84.6247H120.818C121.543 84.6247 122.13 84.039 122.13 83.3165C122.13 82.594 121.543 82.0083 120.818 82.0083Z" fill="#FB87AE"/>
<path d="M45.4087 144.231H49.6803V213.527H45.4087V144.231Z" fill="url(#paint22_linear_44_7558)"/>
<path d="M111.382 167.962H115.179V213.526H111.382V167.962Z" fill="url(#paint23_linear_44_7558)"/>
<path d="M177.835 144.231H182.107V213.527H177.835V144.231Z" fill="url(#paint24_linear_44_7558)"/>
<path d="M210.102 41.3066C212.747 41.3068 214.892 43.4513 214.892 46.0967C214.891 48.742 212.747 50.8866 210.102 50.8867C207.456 50.8867 205.312 48.742 205.312 46.0967C205.312 43.4512 207.456 41.3066 210.102 41.3066Z" stroke="url(#paint25_linear_44_7558)" stroke-width="2.61276"/>
<circle cx="182.101" cy="237.096" r="4.79006" stroke="url(#paint26_linear_44_7558)" stroke-width="2.61276"/>
<path d="M21.0311 175.236C22.3551 175.024 23.4121 176.325 22.9337 177.577L19.7047 186.033C19.2263 187.285 17.5713 187.55 16.7257 186.51L11.0177 179.486C10.1721 178.445 10.7701 176.879 12.0941 176.667L21.0311 175.236Z" fill="url(#paint27_linear_44_7558)"/>
<path d="M241.983 168.006C241.652 166.707 242.851 165.536 244.142 165.899L252.855 168.348C254.146 168.71 254.56 170.335 253.601 171.271L247.124 177.593C246.164 178.529 244.55 178.076 244.219 176.777L241.983 168.006Z" fill="url(#paint28_linear_44_7558)"/>
<path d="M125.87 8.41711C126.385 6.28414 129.419 6.28414 129.934 8.41711L131.667 15.5959C131.851 16.3582 132.446 16.9533 133.208 17.1373L140.387 18.8702C142.52 19.3851 142.52 22.419 140.387 22.9339L133.208 24.6668C132.446 24.8508 131.851 25.446 131.667 26.2082L129.934 33.387C129.419 35.52 126.385 35.52 125.87 33.387L124.137 26.2082C123.953 25.446 123.358 24.8508 122.596 24.6668L115.417 22.9339C113.284 22.419 113.284 19.3851 115.417 18.8702L122.596 17.1373C123.358 16.9533 123.953 16.3582 124.137 15.5959L125.87 8.41711Z" fill="url(#paint29_linear_44_7558)"/>
<path d="M72.8702 230.417C73.3851 228.284 76.419 228.284 76.9339 230.417L78.6668 237.596C78.8508 238.358 79.446 238.953 80.2082 239.137L87.387 240.87C89.52 241.385 89.52 244.419 87.387 244.934L80.2082 246.667C79.446 246.851 78.8508 247.446 78.6668 248.208L76.9339 255.387C76.419 257.52 73.3851 257.52 72.8702 255.387L71.1373 248.208C70.9533 247.446 70.3582 246.851 69.5959 246.667L62.4171 244.934C60.2841 244.419 60.2841 241.385 62.4171 240.87L69.5959 239.137C70.3582 238.953 70.9533 238.358 71.1373 237.596L72.8702 230.417Z" fill="url(#paint30_linear_44_7558)"/>
<defs>
<filter id="filter0_f_44_7558" x="0.227005" y="174.227" width="264.76" height="86.2211" filterUnits="userSpaceOnUse" color-interpolation-filters="sRGB">
<feFlood flood-opacity="0" result="BackgroundImageFix"/>
<feBlend mode="normal" in="SourceGraphic" in2="BackgroundImageFix" result="shape"/>
<feGaussianBlur stdDeviation="10.8865" result="effect1_foregroundBlur_44_7558"/>
</filter>
<filter id="filter1_d_44_7558" x="22.1522" y="86.3269" width="68.5915" height="76.5433" filterUnits="userSpaceOnUse" color-interpolation-filters="sRGB">
<feFlood flood-opacity="0" result="BackgroundImageFix"/>
<feColorMatrix in="SourceAlpha" type="matrix" values="0 0 0 0 0 0 0 0 0 0 0 0 0 0 0 0 0 0 127 0" result="hardAlpha"/>
<feOffset dx="6.64476" dy="10.4418"/>
<feGaussianBlur stdDeviation="4.74626"/>
<feComposite in2="hardAlpha" operator="out"/>
<feColorMatrix type="matrix" values="0 0 0 0 0.184314 0 0 0 0 0.254902 0 0 0 0 0.443137 0 0 0 0.15 0"/>
<feBlend mode="normal" in2="BackgroundImageFix" result="effect1_dropShadow_44_7558"/>
<feBlend mode="normal" in="SourceGraphic" in2="effect1_dropShadow_44_7558" result="shape"/>
</filter>
<filter id="filter2_d_44_7558" x="180.683" y="67.3418" width="68.5915" height="76.5433" filterUnits="userSpaceOnUse" color-interpolation-filters="sRGB">
<feFlood flood-opacity="0" result="BackgroundImageFix"/>
<feColorMatrix in="SourceAlpha" type="matrix" values="0 0 0 0 0 0 0 0 0 0 0 0 0 0 0 0 0 0 127 0" result="hardAlpha"/>
<feOffset dx="6.64476" dy="10.4418"/>
<feGaussianBlur stdDeviation="4.74626"/>
<feComposite in2="hardAlpha" operator="out"/>
<feColorMatrix type="matrix" values="0 0 0 0 0.184314 0 0 0 0 0.254902 0 0 0 0 0.443137 0 0 0 0.15 0"/>
<feBlend mode="normal" in2="BackgroundImageFix" result="effect1_dropShadow_44_7558"/>
<feBlend mode="normal" in="SourceGraphic" in2="effect1_dropShadow_44_7558" result="shape"/>
</filter>
<linearGradient id="paint0_linear_44_7558" x1="135.817" y1="-23.3495" x2="138.167" y2="379.463" gradientUnits="userSpaceOnUse">
<stop stop-color="#FFCCDC" stop-opacity="0"/>
<stop offset="1" stop-color="#E20046"/>
</linearGradient>
<linearGradient id="paint1_linear_44_7558" x1="152.588" y1="60.3657" x2="152.588" y2="132.262" gradientUnits="userSpaceOnUse">
<stop stop-color="#FF9DBB"/>
<stop offset="1" stop-color="#FF5E90"/>
</linearGradient>
<linearGradient id="paint2_linear_44_7558" x1="250.721" y1="60.3657" x2="250.721" y2="132.254" gradientUnits="userSpaceOnUse">
<stop stop-color="#E20046"/>
<stop offset="1" stop-color="#A31F48"/>
</linearGradient>
<linearGradient id="paint3_linear_44_7558" x1="272.285" y1="123.348" x2="240.01" y2="80.6314" gradientUnits="userSpaceOnUse">
<stop stop-color="#FFEDF1"/>
<stop offset="1" stop-color="#FFA8C3"/>
</linearGradient>
<linearGradient id="paint4_linear_44_7558" x1="158.705" y1="72.4319" x2="158.705" y2="132.262" gradientUnits="userSpaceOnUse">
<stop stop-color="#C62356"/>
<stop offset="1" stop-color="#E71F5D"/>
</linearGradient>
<linearGradient id="paint5_linear_44_7558" x1="113.755" y1="239.156" x2="47.3072" y2="176.506" gradientUnits="userSpaceOnUse">
<stop stop-color="#FFEDF2"/>
<stop offset="1" stop-color="#FF89AE"/>
</linearGradient>
<linearGradient id="paint6_linear_44_7558" x1="168.337" y1="219.697" x2="101.889" y2="192.168" gradientUnits="userSpaceOnUse">
<stop stop-color="#FFEDF1"/>
<stop offset="1" stop-color="#FFA6C2"/>
</linearGradient>
<linearGradient id="paint7_linear_44_7558" x1="227.196" y1="221.121" x2="165.495" y2="162.742" gradientUnits="userSpaceOnUse">
<stop stop-color="#EDF4FF"/>
<stop offset="1" stop-color="#FFA4C0"/>
</linearGradient>
<linearGradient id="paint8_linear_44_7558" x1="219.218" y1="60.3657" x2="219.218" y2="132.262" gradientUnits="userSpaceOnUse">
<stop stop-color="#FF9DBB"/>
<stop offset="1" stop-color="#FF5E90"/>
</linearGradient>
<linearGradient id="paint9_linear_44_7558" x1="83.8535" y1="160.843" x2="75.3102" y2="243.903" gradientUnits="userSpaceOnUse">
<stop stop-color="#FF92B4"/>
<stop offset="1" stop-color="#FF578B"/>
</linearGradient>
<linearGradient id="paint10_linear_44_7558" x1="30.2206" y1="148.503" x2="165.963" y2="211.154" gradientUnits="userSpaceOnUse">
<stop stop-color="#FFA5C1"/>
<stop offset="1" stop-color="#FF6897"/>
</linearGradient>
<linearGradient id="paint11_linear_44_7558" x1="272.285" y1="190.27" x2="187.327" y2="193.118" gradientUnits="userSpaceOnUse">
<stop stop-color="#FF5A8D"/>
<stop offset="1" stop-color="#FF457F"/>
</linearGradient>
<linearGradient id="paint12_linear_44_7558" x1="106.978" y1="132.415" x2="106.978" y2="167.978" gradientUnits="userSpaceOnUse">
<stop stop-color="#E20046"/>
<stop offset="1" stop-color="#A31F48"/>
</linearGradient>
<linearGradient id="paint13_linear_44_7558" x1="103.972" y1="132.415" x2="103.972" y2="167.978" gradientUnits="userSpaceOnUse">
<stop stop-color="#FF9DBB"/>
<stop offset="1" stop-color="#FF5E90"/>
</linearGradient>
<linearGradient id="paint14_linear_44_7558" x1="103.976" y1="135.819" x2="103.976" y2="164.286" gradientUnits="userSpaceOnUse">
<stop stop-color="#E20046"/>
<stop offset="1" stop-color="#A31F48"/>
</linearGradient>
<linearGradient id="paint15_linear_44_7558" x1="69.2227" y1="111.521" x2="35.8226" y2="108.186" gradientUnits="userSpaceOnUse">
<stop stop-color="#FFBBD0"/>
<stop offset="1" stop-color="white"/>
</linearGradient>
<linearGradient id="paint16_linear_44_7558" x1="188.914" y1="92.5354" x2="222.314" y2="89.2006" gradientUnits="userSpaceOnUse">
<stop stop-color="#FFBBD0"/>
<stop offset="1" stop-color="white"/>
</linearGradient>
<linearGradient id="paint17_linear_44_7558" x1="29.1787" y1="96.5437" x2="29.1787" y2="108.347" gradientUnits="userSpaceOnUse">
<stop stop-color="#FFEBF1"/>
<stop offset="1" stop-color="#FFA3BF"/>
</linearGradient>
<linearGradient id="paint18_linear_44_7558" x1="228.958" y1="77.5586" x2="228.958" y2="89.3621" gradientUnits="userSpaceOnUse">
<stop stop-color="#FFEBF1"/>
<stop offset="1" stop-color="#FFA3BF"/>
</linearGradient>
<linearGradient id="paint19_linear_44_7558" x1="100.94" y1="154.673" x2="113.28" y2="155.147" gradientUnits="userSpaceOnUse">
<stop stop-color="#D7295F"/>
<stop offset="1" stop-color="#D2436F"/>
</linearGradient>
<linearGradient id="paint20_linear_44_7558" x1="142.038" y1="42" x2="142.038" y2="132.025" gradientUnits="userSpaceOnUse">
<stop stop-color="#FFEBF1"/>
<stop offset="1" stop-color="#FFA3BF"/>
</linearGradient>
<linearGradient id="paint21_linear_44_7558" x1="178.309" y1="64.9687" x2="159.799" y2="50.7299" gradientUnits="userSpaceOnUse">
<stop stop-color="#FFEAF0"/>
<stop offset="1" stop-color="#FFA6C2"/>
</linearGradient>
<linearGradient id="paint22_linear_44_7558" x1="15.5073" y1="210.204" x2="105.362" y2="200.11" gradientUnits="userSpaceOnUse">
<stop offset="0.09375" stop-color="#C02656"/>
<stop offset="1" stop-color="#DE205B" stop-opacity="0"/>
</linearGradient>
<linearGradient id="paint23_linear_44_7558" x1="84.8028" y1="211.342" x2="163.859" y2="199.336" gradientUnits="userSpaceOnUse">
<stop offset="0.09375" stop-color="#C02656"/>
<stop offset="1" stop-color="#DE205B" stop-opacity="0"/>
</linearGradient>
<linearGradient id="paint24_linear_44_7558" x1="147.934" y1="210.204" x2="221.575" y2="216.666" gradientUnits="userSpaceOnUse">
<stop offset="0.09375" stop-color="#C32958"/>
<stop offset="1" stop-color="#FF739F"/>
</linearGradient>
<linearGradient id="paint25_linear_44_7558" x1="202.608" y1="42.2862" x2="221.659" y2="58.7974" gradientUnits="userSpaceOnUse">
<stop stop-color="#FF6293"/>
<stop offset="1" stop-color="#F81B5F"/>
</linearGradient>
<linearGradient id="paint26_linear_44_7558" x1="174.608" y1="233.286" x2="193.659" y2="249.797" gradientUnits="userSpaceOnUse">
<stop stop-color="#FF6293"/>
<stop offset="1" stop-color="#F81B5F"/>
</linearGradient>
<linearGradient id="paint27_linear_44_7558" x1="24.0101" y1="174.759" x2="10.4922" y2="185.744" gradientUnits="userSpaceOnUse">
<stop stop-color="#E20046"/>
<stop offset="1" stop-color="#A31F48"/>
</linearGradient>
<linearGradient id="paint28_linear_44_7558" x1="241.238" y1="165.083" x2="253.404" y2="177.548" gradientUnits="userSpaceOnUse">
<stop stop-color="#E20046"/>
<stop offset="1" stop-color="#A31F48"/>
</linearGradient>
<linearGradient id="paint29_linear_44_7558" x1="127.902" y1="0" x2="127.902" y2="41.8041" gradientUnits="userSpaceOnUse">
<stop stop-color="#E20046"/>
<stop offset="1" stop-color="#A31F48"/>
</linearGradient>
<linearGradient id="paint30_linear_44_7558" x1="74.9021" y1="222" x2="74.9021" y2="263.804" gradientUnits="userSpaceOnUse">
<stop stop-color="#E20046"/>
<stop offset="1" stop-color="#A31F48"/>
</linearGradient>
</defs>
</svg>
